#!OML:ASF F:\VICON\USERDATA\INSTALL\rory3\rory3.ASF
:FULLY-SPECIFIED
:DEGREES
740
root 3.00907 16.7199 -0.00765167 15.6583 4.67115 11.2363
lowerback -7.33865 1.85146 0.315555
upperback -2.08199 2.65273 -7.06986
thorax 2.31179 1.35146 -7.33804
lowerneck -2.42896 14.6096 5.25035
upperneck 47.6521 24.445 -1.8719
head 20.2157 10.6662 2.33998
rclavicle -3.03147e-015 1.03368e-014
rhumerus -36.6044 3.69571 -92.7116
rradius 42.2036
rwrist -38.5014
rhand -9.55026 -47.2145
rfingers 7.12502
rthumb 16.4167 -76.5398
lclavicle -3.03147e-015 1.03368e-014
lhumerus -27.6044 -20.2961 82.3924
lradius 41.2994
lwrist 74.2709
lhand -37.5898 -13.6431
lfingers 7.12502
lthumb -10.6436 16.0673
rfemur -51.1965 23.8398 -7.03486
rtibia 74.066
rfoot 3.13447 10.1374
rtoes -42.0674
lfemur -32.3745 -6.86365 -36.7184
ltibia 38.2133
lfoot -16.8544 10.9495
ltoes 4.67147
741
root 3.00551 16.7512 0.0192611 14.6886 6.20175 11.6058
lowerback -6.67764 1.32438 0.178222
upperback -1.5774 1.96026 -7.03426
thorax 2.37084 1.01193 -7.29631
lowerneck -2.6037 14.6319 5.16642
upperneck 47.7334 24.4683 -1.77155
head 20.2774 10.6575 2.42506
rclavicle -3.47873e-016 -6.75868e-015
rhumerus -36.4987 3.74702 -92.7405
rradius 42.1366
rwrist -38.6169
rhand -10.1298 -47.4619
rfingers 7.12502
rthumb 15.8587 -76.8324
lclavicle -3.47873e-016 -6.75868e-015
lhumerus -27.3327 -20.2897 82.3542
lradius 41.0977
lwrist 74.2716
lhand -37.7142 -13.5352
lfingers 7.12502
lthumb -10.7636 16.169
rfemur -48.7651 23.4015 -6.05418
rtibia 73.9291
rfoot 2.71464 9.48806
rtoes -42.4107
lfemur -30.7596 -7.67548 -36.8656
ltibia 38.1085
lfoot -17.1065 10.4904
ltoes 5.02344
742
root 3.01519 16.7283 -0.00654695 15.7407 4.74197 11.1595
lowerback -7.48802 1.83273 0.481425
upperback -2.04813 2.62283 -7.07437
thorax 2.43393 1.34003 -7.43886
lowerneck -2.86377 14.6813 5.06672
upperneck 48.0186 24.5081 -1.49549
head 20.4607 10.6547 2.62035
rclavicle -1.42628e-014 -2.26615e-014
rhumerus -36.4865 3.77007 -92.79
rradius 42.1276
rwrist -38.712
rhand -10.1444 -48.0234
rfingers 7.12502
rthumb 15.8446 -77.3951
lclavicle -1.42628e-014 -2.26615e-014
lhumerus -27.1996 -20.2564 82.3144
lradius 40.9783
lwrist 74.176
lhand -38.0343 -13.5137
lfingers 7.12502
lthumb -11.0723 16.1742
rfemur -51.2016 23.791 -6.95809
rtibia 74.0092
rfoot 3.05163 10.1223
rtoes -42.7601
lfemur -32.4484 -7.00173 -36.6027
ltibia 38.249
lfoot -16.994 10.8415
ltoes 5.64926
743
root 3.01461 16.732 -0.00169182 15.7131 4.7642 11.0476
lowerback -7.61493 1.82074 0.568757
upperback -1.96423 2.60736 -7.02479
thorax 2.59156 1.33668 -7.43399
lowerneck -2.97087 14.733 5.03361
upperneck 48.0924 24.584 -1.4312
head 20.5244 10.6735 2.6864
rclavicle 7.8023e-015 8.34896e-015
rhumerus -36.3958 3.90984 -92.847
rradius 42.1493
rwrist -38.986
rhand -9.98157 -47.5705
rfingers 7.12502
rthumb 16.0014 -76.9297
lclavicle 7.8023e-015 8.34896e-015
lhumerus -27.0381 -20.1767 82.2714
lradius 40.89
lwrist 74.1219
lhand -38.218 -13.6293
lfingers 7.12502
lthumb -11.2495 16.049
rfemur -51.1328 23.84 -6.7916
rtibia 73.9646
rfoot 3.02001 10.1414
rtoes -43.0306
lfemur -32.4021 -6.98465 -36.4743
ltibia 38.2493
lfoot -17.0068 10.8245
ltoes 5.96003
744
root 3.01278 16.7341 -8.74997e-005 15.6695 4.71278 11.0983
lowerback -7.25236 1.81826 0.441649
upperback -2.17088 2.58914 -7.02109
thorax 2.16587 1.31554 -7.3679
lowerneck -2.69573 14.7421 5.09792
upperneck 48.1374 24.6057 -1.4292
head 20.4991 10.7092 2.65481
rclavicle -4.67144e-015 4.37326e-014
rhumerus -36.8019 3.99984 -92.9202
rradius 42.2538
rwrist -39.2547
rhand -10.0636 -46.9769
rfingers 7.12502
rthumb 15.9224 -76.3423
lclavicle -4.67144e-015 4.37326e-014
lhumerus -27.4541 -20.194 82.4001
lradius 40.9802
lwrist 74.1661
lhand -38.1668 -13.682
lfingers 7.12502
lthumb -11.2002 15.999
rfemur -51.1189 23.9333 -6.8369
rtibia 73.98
rfoot 2.99227 10.1607
rtoes -43.1966
lfemur -32.4473 -6.98781 -36.4985
ltibia 38.3987
lfoot -17.2245 10.6428
ltoes 7.22609
745
root 3.01392 16.7402 0.00469807 15.7056 4.66353 11.2293
lowerback -7.25849 1.82702 0.280308
upperback -2.2129 2.61119 -7.05343
thorax 2.12297 1.32477 -7.30727
lowerneck -2.43627 14.6889 5.18274
upperneck 47.9202 24.5543 -1.65049
head 20.3465 10.7077 2.48823
rclavicle 9.44227e-016 5.725e-014
rhumerus -36.937 4.00956 -92.9266
rradius 42.3033
rwrist -39.3154
rhand -9.89475 -47.198
rfingers 7.12502
rthumb 16.085 -76.5504
lclavicle 9.44227e-016 5.725e-014
lhumerus -27.5732 -20.2127 82.4365
lradius 41.0435
lwrist 74.241
lhand -37.9234 -13.7397
lfingers 7.12502
lthumb -10.9654 15.9539
rfemur -51.113 23.9861 -7.0067
rtibia 73.9419
rfoot 2.90242 10.1034
rtoes -43.3913
lfemur -32.4486 -7.04703 -36.6182
ltibia 38.3224
lfoot -17.279 10.5462
ltoes 7.91302
746
root 3.01799 16.7408 0.0107967 15.7643 4.6698 11.2106
lowerback -7.46644 1.84771 0.350279
upperback -2.14239 2.64586 -7.06074
thorax 2.3203 1.34712 -7.34675
lowerneck -2.355 14.6519 5.24639
upperneck 47.7542 24.5288 -1.83815
head 20.2677 10.7002 2.37104
rclavicle 3.95581e-014 -5.60573e-014
rhumerus -36.8509 3.98707 -92.9141
rradius 42.3343
rwrist -39.3465
rhand -9.82842 -47.3774
rfingers 7.12502
rthumb 16.1489 -76.7246
lclavicle 3.95581e-014 -5.60573e-014
lhumerus -27.4253 -20.237 82.3981
lradius 41.0042
lwrist 74.2631
lhand -37.5618 -13.9821
lfingers 7.12502
lthumb -10.6166 15.7297
rfemur -51.1334 23.9616 -7.01327
rtibia 73.9216
rfoot 2.8987 10.1045
rtoes -43.3283
lfemur -32.4124 -7.02197 -36.6408
ltibia 38.2321
lfoot -17.1611 10.6924
ltoes 6.76084
747
root 3.02597 16.7429 0.0204789 15.795 4.74752 11.1364
lowerback -7.70924 1.86304 0.541244
upperback -2.04545 2.66615 -7.05866
thorax 2.5678 1.36447 -7.44705
lowerneck -2.65539 14.6824 5.14912
upperneck 48.0139 24.5609 -1.61919
head 20.4594 10.6869 2.54287
rclavicle -9.93923e-017 -1.19271e-015
rhumerus -36.7335 3.88328 -92.8648
rradius 42.39
rwrist -39.3009
rhand -9.77651 -47.5706
rfingers 7.12502
rthumb 16.1989 -76.9138
lclavicle -9.93923e-017 -1.19271e-015
lhumerus -27.3287 -20.297 82.3734
lradius 41.0671
lwrist 74.2877
lhand -37.7411 -14.08
lfingers 7.12502
lthumb -10.7896 15.6229
rfemur -51.0386 23.8892 -6.91569
rtibia 73.8834
rfoot 2.92066 10.1347
rtoes -43.0844
lfemur -32.2951 -6.99548 -36.6167
ltibia 38.1403
lfoot -17.1122 10.7369
ltoes 6.04881
748
root 3.03315 16.7447 0.0302188 15.8343 4.78396 11.0922
lowerback -7.79674 1.87136 0.666199
upperback -2.07489 2.66875 -7.05556
thorax 2.59165 1.36646 -7.51455
lowerneck -2.80765 14.7226 5.06926
upperneck 48.2988 24.6025 -1.37508
head 20.6291 10.6917 2.71095
rclavicle -8.64713e-015 1.15295e-014
rhumerus -36.7952 3.81907 -92.8356
rradius 42.4399
rwrist -39.2623
rhand -9.69563 -47.7993
rfingers 7.12502
rthumb 16.2767 -77.1361
lclavicle -8.64713e-015 1.15295e-014
lhumerus -27.4306 -20.3319 82.4109
lradius 41.1267
lwrist 74.3967
lhand -38.0832 -13.833
lfingers 7.12502
lthumb -11.1195 15.8524
rfemur -50.947 23.8625 -6.87749
rtibia 73.838
rfoot 2.76697 10.1797
rtoes -43.3735
lfemur -32.2415 -7.02755 -36.5944
ltibia 38.0768
lfoot -17.1402 10.7062
ltoes 6.17903
749
root 3.03319 16.7411 0.0297935 15.8593 4.7505 11.0657
lowerback -7.74391 1.88253 0.691425
upperback -2.11372 2.67758 -7.04774
thorax 2.52363 1.36903 -7.5213
lowerneck -2.71741 14.7297 5.10267
upperneck 48.271 24.6183 -1.41117
head 20.6027 10.7067 2.68094
rclavicle 1.39646e-014 -6.12257e-014
rhumerus -36.8292 3.7652 -92.7844
rradius 42.4026
rwrist -38.9468
rhand -9.56591 -48.2852
rfingers 7.12502
rthumb 16.4016 -77.6117
lclavicle 1.39646e-014 -6.12257e-014
lhumerus -27.4007 -20.3536 82.4248
lradius 41.0037
lwrist 74.5137
lhand -37.7135 -13.9425
lfingers 7.12502
lthumb -10.7629 15.7617
rfemur -51.0125 23.8971 -6.89122
rtibia 73.8426
rfoot 2.68043 10.252
rtoes -43.5993
lfemur -32.3115 -6.98362 -36.5816
ltibia 38.0622
lfoot -17.0907 10.7443
ltoes 5.95957
750
root 3.03205 16.7402 0.0282579 15.8175 4.71657 11.0869
lowerback -7.75137 1.87836 0.654966
upperback -2.02056 2.6802 -7.04574
thorax 2.62362 1.37367 -7.49656
lowerneck -2.73184 14.7196 5.0854
upperneck 48.0968 24.611 -1.53225
head 20.5067 10.6966 2.61395
rclavicle -7.95139e-016 -1.59028e-015
rhumerus -36.6793 3.7849 -92.7479
rradius 42.3144
rwrist -38.6671
rhand -9.49425 -48.5907
rfingers 7.12502
rthumb 16.4706 -77.9116
lclavicle -7.95139e-016 -1.59028e-015
lhumerus -27.2444 -20.2645 82.3617
lradius 40.9576
lwrist 74.4808
lhand -37.2381 -14.3239
lfingers 7.12502
lthumb -10.3043 15.4037
rfemur -51.0268 23.9421 -6.91334
rtibia 73.8632
rfoot 2.72651 10.3279
rtoes -43.371
lfemur -32.3172 -6.93886 -36.6172
ltibia 38.0829
lfoot -17.0826 10.7958
ltoes 5.83254
751
root 3.03335 16.7397 0.0295171 15.8044 4.70886 11.1169
lowerback -7.78067 1.85583 0.632135
upperback -1.96624 2.65571 -7.04603
thorax 2.69231 1.36342 -7.48517
lowerneck -2.64862 14.7071 5.09185
upperneck 47.8674 24.6049 -1.70437
head 20.3644 10.6945 2.50582
rclavicle 9.64106e-015 1.63003e-014
rhumerus -36.6007 3.97059 -92.8298
rradius 42.3206
rwrist -38.9728
rhand -9.47233 -48.2527
rfingers 7.12502
rthumb 16.4917 -77.5718
lclavicle 9.64106e-015 1.63003e-014
lhumerus -27.2646 -20.1203 82.3048
lradius 41.1116
lwrist 74.2974
lhand -37.1561 -14.3109
lfingers 7.12502
lthumb -10.2252 15.4205
rfemur -51.0266 23.9575 -6.9473
rtibia 73.8872
rfoot 2.74934 10.3727
rtoes -43.3509
lfemur -32.2611 -6.88948 -36.662
ltibia 38.0755
lfoot -17.1444 10.6919
ltoes 6.05708
752
root 3.03294 16.7367 0.0262743 15.8431 4.70269 11.1184
lowerback -7.72594 1.85864 0.638383
upperback -2.0073 2.6551 -7.05115
thorax 2.61937 1.36112 -7.49599
lowerneck -2.40891 14.668 5.18841
upperneck 47.6137 24.5652 -1.93195
head 20.1963 10.699 2.33781
rclavicle 4.2043e-014 -4.21423e-014
rhumerus -36.7215 4.03436 -92.8842
rradius 42.4931
rwrist -39.215
rhand -9.20889 -48.4111
rfingers 7.12502
rthumb 16.7453 -77.7089
lclavicle 4.2043e-014 -4.21423e-014
lhumerus -27.3601 -20.1477 82.3136
lradius 41.2252
lwrist 74.2143
lhand -37.3067 -14.1057
lfingers 7.12502
lthumb -10.3706 15.6185
rfemur -51.1466 23.9555 -6.98597
rtibia 73.9225
rfoot 2.90098 10.2763
rtoes -43.3812
lfemur -32.2761 -6.81688 -36.6667
ltibia 38.0185
lfoot -17.1203 10.5543
ltoes 6.13298
